<mxfile host="Electron" agent="Mozilla/5.0 (Windows NT 10.0; Win64; x64) AppleWebKit/537.36 (KHTML, like Gecko) draw.io/27.0.9 Chrome/134.0.6998.205 Electron/35.4.0 Safari/537.36" version="27.0.9">
  <diagram name="Page-1" id="iJcyXBtNYZHe1l9KSTGc">
    <mxGraphModel dx="856" dy="521" grid="1" gridSize="10" guides="1" tooltips="1" connect="1" arrows="1" fold="1" page="1" pageScale="1" pageWidth="850" pageHeight="1100" math="0" shadow="0">
      <root>
        <mxCell id="0" />
        <mxCell id="1" parent="0" />
        <mxCell id="F2EsAKx9VfEfk_vHaqzP-1" value="&lt;font style=&quot;font-size: 31px;&quot;&gt;&lt;b style=&quot;&quot;&gt;Integration Model&lt;/b&gt;&lt;/font&gt;" style="text;html=1;align=center;verticalAlign=middle;resizable=0;points=[];autosize=1;strokeColor=none;fillColor=none;" parent="1" vertex="1">
          <mxGeometry y="28" width="280" height="50" as="geometry" />
        </mxCell>
        <mxCell id="F2EsAKx9VfEfk_vHaqzP-2" value="&lt;font style=&quot;font-size: 18px;&quot;&gt;how the tables are related&lt;/font&gt;" style="text;html=1;align=center;verticalAlign=middle;resizable=0;points=[];autosize=1;strokeColor=none;fillColor=none;" parent="1" vertex="1">
          <mxGeometry x="185" y="73" width="230" height="40" as="geometry" />
        </mxCell>
        <mxCell id="F2EsAKx9VfEfk_vHaqzP-46" value="crm_cust_info" style="swimlane;fontStyle=0;childLayout=stackLayout;horizontal=1;startSize=30;horizontalStack=0;resizeParent=1;resizeParentMax=0;resizeLast=0;collapsible=1;marginBottom=0;whiteSpace=wrap;html=1;rounded=1;fillColor=#dae8fc;strokeColor=#6c8ebf;fontSize=16;" parent="1" vertex="1">
          <mxGeometry x="320.5" y="396" width="215" height="110" as="geometry" />
        </mxCell>
        <mxCell id="F2EsAKx9VfEfk_vHaqzP-47" value="cst_id" style="text;strokeColor=none;fillColor=none;align=left;verticalAlign=middle;spacingLeft=4;spacingRight=4;overflow=hidden;points=[[0,0.5],[1,0.5]];portConstraint=eastwest;rotatable=0;whiteSpace=wrap;html=1;fontSize=16;" parent="F2EsAKx9VfEfk_vHaqzP-46" vertex="1">
          <mxGeometry y="30" width="215" height="40" as="geometry" />
        </mxCell>
        <mxCell id="F2EsAKx9VfEfk_vHaqzP-67" value="cst_key" style="text;strokeColor=none;fillColor=none;align=left;verticalAlign=middle;spacingLeft=4;spacingRight=4;overflow=hidden;points=[[0,0.5],[1,0.5]];portConstraint=eastwest;rotatable=0;whiteSpace=wrap;html=1;fontSize=16;" parent="F2EsAKx9VfEfk_vHaqzP-46" vertex="1">
          <mxGeometry y="70" width="215" height="40" as="geometry" />
        </mxCell>
        <mxCell id="F2EsAKx9VfEfk_vHaqzP-51" value="&lt;font style=&quot;font-size: 15px;&quot;&gt;Customer Information&lt;/font&gt;" style="text;html=1;align=center;verticalAlign=middle;resizable=0;points=[];autosize=1;strokeColor=none;fillColor=none;" parent="1" vertex="1">
          <mxGeometry x="343" y="374" width="170" height="30" as="geometry" />
        </mxCell>
        <mxCell id="F2EsAKx9VfEfk_vHaqzP-53" value="crm_prd_info" style="swimlane;fontStyle=0;childLayout=stackLayout;horizontal=1;startSize=30;horizontalStack=0;resizeParent=1;resizeParentMax=0;resizeLast=0;collapsible=1;marginBottom=0;whiteSpace=wrap;html=1;rounded=1;fillColor=#dae8fc;strokeColor=#6c8ebf;fontSize=16;" parent="1" vertex="1">
          <mxGeometry x="318" y="250" width="215" height="70" as="geometry" />
        </mxCell>
        <mxCell id="F2EsAKx9VfEfk_vHaqzP-54" value="prd_key" style="text;strokeColor=none;fillColor=none;align=left;verticalAlign=middle;spacingLeft=4;spacingRight=4;overflow=hidden;points=[[0,0.5],[1,0.5]];portConstraint=eastwest;rotatable=0;whiteSpace=wrap;html=1;fontSize=16;" parent="F2EsAKx9VfEfk_vHaqzP-53" vertex="1">
          <mxGeometry y="30" width="215" height="40" as="geometry" />
        </mxCell>
        <mxCell id="F2EsAKx9VfEfk_vHaqzP-55" value="&lt;span style=&quot;font-size: 15px;&quot;&gt;Current and History Product&lt;/span&gt;&lt;div&gt;&lt;span style=&quot;font-size: 15px;&quot;&gt;Informatioon&lt;/span&gt;&lt;/div&gt;" style="text;html=1;align=center;verticalAlign=middle;resizable=0;points=[];autosize=1;strokeColor=none;fillColor=none;" parent="1" vertex="1">
          <mxGeometry x="320.5" y="210" width="210" height="50" as="geometry" />
        </mxCell>
        <mxCell id="F2EsAKx9VfEfk_vHaqzP-56" value="crm_sales_details" style="swimlane;fontStyle=0;childLayout=stackLayout;horizontal=1;startSize=30;horizontalStack=0;resizeParent=1;resizeParentMax=0;resizeLast=0;collapsible=1;marginBottom=0;whiteSpace=wrap;html=1;rounded=1;fillColor=#dae8fc;strokeColor=#6c8ebf;fontSize=16;" parent="1" vertex="1">
          <mxGeometry x="20" y="304" width="215" height="110" as="geometry" />
        </mxCell>
        <mxCell id="F2EsAKx9VfEfk_vHaqzP-57" value="prd_key" style="text;strokeColor=none;fillColor=none;align=left;verticalAlign=middle;spacingLeft=4;spacingRight=4;overflow=hidden;points=[[0,0.5],[1,0.5]];portConstraint=eastwest;rotatable=0;whiteSpace=wrap;html=1;fontSize=16;" parent="F2EsAKx9VfEfk_vHaqzP-56" vertex="1">
          <mxGeometry y="30" width="215" height="40" as="geometry" />
        </mxCell>
        <mxCell id="F2EsAKx9VfEfk_vHaqzP-59" value="cst_id" style="text;strokeColor=none;fillColor=none;align=left;verticalAlign=middle;spacingLeft=4;spacingRight=4;overflow=hidden;points=[[0,0.5],[1,0.5]];portConstraint=eastwest;rotatable=0;whiteSpace=wrap;html=1;fontSize=16;" parent="F2EsAKx9VfEfk_vHaqzP-56" vertex="1">
          <mxGeometry y="70" width="215" height="40" as="geometry" />
        </mxCell>
        <mxCell id="F2EsAKx9VfEfk_vHaqzP-58" value="&lt;span style=&quot;font-size: 15px;&quot;&gt;Transactional Records&amp;nbsp;&lt;/span&gt;&lt;div&gt;&lt;span style=&quot;font-size: 15px;&quot;&gt;about Sales &amp;amp; Orders&lt;/span&gt;&lt;/div&gt;" style="text;html=1;align=center;verticalAlign=middle;resizable=0;points=[];autosize=1;strokeColor=none;fillColor=none;" parent="1" vertex="1">
          <mxGeometry x="37.5" y="260" width="180" height="50" as="geometry" />
        </mxCell>
        <mxCell id="F2EsAKx9VfEfk_vHaqzP-61" style="edgeStyle=orthogonalEdgeStyle;rounded=0;orthogonalLoop=1;jettySize=auto;html=1;exitX=1;exitY=0.5;exitDx=0;exitDy=0;entryX=0;entryY=0.5;entryDx=0;entryDy=0;" parent="1" source="F2EsAKx9VfEfk_vHaqzP-57" target="F2EsAKx9VfEfk_vHaqzP-47" edge="1">
          <mxGeometry relative="1" as="geometry">
            <Array as="points">
              <mxPoint x="235" y="400" />
              <mxPoint x="280" y="400" />
              <mxPoint x="280" y="446" />
            </Array>
          </mxGeometry>
        </mxCell>
        <mxCell id="F2EsAKx9VfEfk_vHaqzP-62" style="edgeStyle=orthogonalEdgeStyle;rounded=0;orthogonalLoop=1;jettySize=auto;html=1;exitX=1;exitY=0.5;exitDx=0;exitDy=0;entryX=0;entryY=0.5;entryDx=0;entryDy=0;" parent="1" source="F2EsAKx9VfEfk_vHaqzP-57" target="F2EsAKx9VfEfk_vHaqzP-54" edge="1">
          <mxGeometry relative="1" as="geometry" />
        </mxCell>
        <mxCell id="F2EsAKx9VfEfk_vHaqzP-64" value="erp_cust_az12" style="swimlane;fontStyle=0;childLayout=stackLayout;horizontal=1;startSize=30;horizontalStack=0;resizeParent=1;resizeParentMax=0;resizeLast=0;collapsible=1;marginBottom=0;whiteSpace=wrap;html=1;rounded=1;fillColor=#fff2cc;strokeColor=#d6b656;fontSize=16;" parent="1" vertex="1">
          <mxGeometry x="620" y="370" width="215" height="70" as="geometry" />
        </mxCell>
        <mxCell id="F2EsAKx9VfEfk_vHaqzP-65" value="cid" style="text;strokeColor=none;fillColor=none;align=left;verticalAlign=middle;spacingLeft=4;spacingRight=4;overflow=hidden;points=[[0,0.5],[1,0.5]];portConstraint=eastwest;rotatable=0;whiteSpace=wrap;html=1;fontSize=16;" parent="F2EsAKx9VfEfk_vHaqzP-64" vertex="1">
          <mxGeometry y="30" width="215" height="40" as="geometry" />
        </mxCell>
        <mxCell id="F2EsAKx9VfEfk_vHaqzP-66" value="&lt;span style=&quot;font-size: 15px;&quot;&gt;Extra Customer&amp;nbsp;&lt;/span&gt;&lt;div&gt;&lt;span style=&quot;font-size: 15px;&quot;&gt;Information(BDATE)&lt;/span&gt;&lt;/div&gt;" style="text;html=1;align=center;verticalAlign=middle;resizable=0;points=[];autosize=1;strokeColor=none;fillColor=none;" parent="1" vertex="1">
          <mxGeometry x="647.5" y="330" width="160" height="50" as="geometry" />
        </mxCell>
        <mxCell id="F2EsAKx9VfEfk_vHaqzP-69" style="edgeStyle=orthogonalEdgeStyle;rounded=0;orthogonalLoop=1;jettySize=auto;html=1;exitX=0;exitY=0.5;exitDx=0;exitDy=0;entryX=1;entryY=0.5;entryDx=0;entryDy=0;" parent="1" source="F2EsAKx9VfEfk_vHaqzP-65" target="F2EsAKx9VfEfk_vHaqzP-67" edge="1">
          <mxGeometry relative="1" as="geometry" />
        </mxCell>
        <mxCell id="F2EsAKx9VfEfk_vHaqzP-70" value="erp_loc_a101" style="swimlane;fontStyle=0;childLayout=stackLayout;horizontal=1;startSize=30;horizontalStack=0;resizeParent=1;resizeParentMax=0;resizeLast=0;collapsible=1;marginBottom=0;whiteSpace=wrap;html=1;rounded=1;fillColor=#fff2cc;strokeColor=#d6b656;fontSize=16;" parent="1" vertex="1">
          <mxGeometry x="630" y="490" width="215" height="70" as="geometry" />
        </mxCell>
        <mxCell id="F2EsAKx9VfEfk_vHaqzP-71" value="cid" style="text;strokeColor=none;fillColor=none;align=left;verticalAlign=middle;spacingLeft=4;spacingRight=4;overflow=hidden;points=[[0,0.5],[1,0.5]];portConstraint=eastwest;rotatable=0;whiteSpace=wrap;html=1;fontSize=16;" parent="F2EsAKx9VfEfk_vHaqzP-70" vertex="1">
          <mxGeometry y="30" width="215" height="40" as="geometry" />
        </mxCell>
        <mxCell id="F2EsAKx9VfEfk_vHaqzP-72" value="&lt;span style=&quot;font-size: 15px;&quot;&gt;Location of Customers (Country)&lt;/span&gt;" style="text;html=1;align=center;verticalAlign=middle;resizable=0;points=[];autosize=1;strokeColor=none;fillColor=none;" parent="1" vertex="1">
          <mxGeometry x="620" y="465" width="240" height="30" as="geometry" />
        </mxCell>
        <mxCell id="F2EsAKx9VfEfk_vHaqzP-73" style="edgeStyle=orthogonalEdgeStyle;rounded=0;orthogonalLoop=1;jettySize=auto;html=1;exitX=0;exitY=0.5;exitDx=0;exitDy=0;entryX=1;entryY=0.5;entryDx=0;entryDy=0;" parent="1" source="F2EsAKx9VfEfk_vHaqzP-71" target="F2EsAKx9VfEfk_vHaqzP-67" edge="1">
          <mxGeometry relative="1" as="geometry" />
        </mxCell>
        <mxCell id="F2EsAKx9VfEfk_vHaqzP-74" value="erp_px_cat_g1v2" style="swimlane;fontStyle=0;childLayout=stackLayout;horizontal=1;startSize=30;horizontalStack=0;resizeParent=1;resizeParentMax=0;resizeLast=0;collapsible=1;marginBottom=0;whiteSpace=wrap;html=1;rounded=1;fillColor=#fff2cc;strokeColor=#d6b656;fontSize=16;" parent="1" vertex="1">
          <mxGeometry x="630" y="250" width="215" height="70" as="geometry" />
        </mxCell>
        <mxCell id="F2EsAKx9VfEfk_vHaqzP-75" value="id" style="text;strokeColor=none;fillColor=none;align=left;verticalAlign=middle;spacingLeft=4;spacingRight=4;overflow=hidden;points=[[0,0.5],[1,0.5]];portConstraint=eastwest;rotatable=0;whiteSpace=wrap;html=1;fontSize=16;" parent="F2EsAKx9VfEfk_vHaqzP-74" vertex="1">
          <mxGeometry y="30" width="215" height="40" as="geometry" />
        </mxCell>
        <mxCell id="F2EsAKx9VfEfk_vHaqzP-76" value="&lt;span style=&quot;font-size: 15px;&quot;&gt;Product Category Information&lt;/span&gt;" style="text;html=1;align=center;verticalAlign=middle;resizable=0;points=[];autosize=1;strokeColor=none;fillColor=none;" parent="1" vertex="1">
          <mxGeometry x="627.5" y="230" width="220" height="30" as="geometry" />
        </mxCell>
        <mxCell id="F2EsAKx9VfEfk_vHaqzP-80" style="edgeStyle=orthogonalEdgeStyle;rounded=0;orthogonalLoop=1;jettySize=auto;html=1;exitX=0;exitY=0.5;exitDx=0;exitDy=0;" parent="1" source="F2EsAKx9VfEfk_vHaqzP-75" target="F2EsAKx9VfEfk_vHaqzP-54" edge="1">
          <mxGeometry relative="1" as="geometry" />
        </mxCell>
        <mxCell id="F2EsAKx9VfEfk_vHaqzP-81" value="" style="rounded=1;whiteSpace=wrap;html=1;fillColor=none;dashed=1;" parent="1" vertex="1">
          <mxGeometry x="20" y="180" width="540" height="380" as="geometry" />
        </mxCell>
        <mxCell id="F2EsAKx9VfEfk_vHaqzP-82" value="" style="rounded=0;whiteSpace=wrap;html=1;fillColor=#999999;" parent="1" vertex="1">
          <mxGeometry x="235" y="150" width="120" height="30" as="geometry" />
        </mxCell>
        <mxCell id="F2EsAKx9VfEfk_vHaqzP-83" value="&lt;font style=&quot;font-size: 16px;&quot;&gt;&lt;b&gt;CRM&lt;/b&gt;&lt;/font&gt;" style="text;html=1;align=center;verticalAlign=middle;resizable=0;points=[];autosize=1;strokeColor=none;fillColor=default;" parent="1" vertex="1">
          <mxGeometry x="265" y="150" width="60" height="30" as="geometry" />
        </mxCell>
        <mxCell id="F2EsAKx9VfEfk_vHaqzP-84" value="" style="rounded=1;whiteSpace=wrap;html=1;fillColor=none;dashed=1;" parent="1" vertex="1">
          <mxGeometry x="590" y="180" width="280" height="400" as="geometry" />
        </mxCell>
        <mxCell id="F2EsAKx9VfEfk_vHaqzP-85" value="" style="rounded=0;whiteSpace=wrap;html=1;fillColor=#999999;" parent="1" vertex="1">
          <mxGeometry x="660" y="150" width="120" height="30" as="geometry" />
        </mxCell>
        <mxCell id="F2EsAKx9VfEfk_vHaqzP-86" value="&lt;span style=&quot;font-size: 16px;&quot;&gt;&lt;b&gt;ERP&lt;/b&gt;&lt;/span&gt;" style="text;html=1;align=center;verticalAlign=middle;resizable=0;points=[];autosize=1;strokeColor=none;fillColor=default;" parent="1" vertex="1">
          <mxGeometry x="690" y="150" width="60" height="30" as="geometry" />
        </mxCell>
        <mxCell id="I5uIQci_89wwXOW9FdJi-2" value="PRODUCT" style="rounded=0;whiteSpace=wrap;html=1;fillColor=#FF9999;" vertex="1" parent="1">
          <mxGeometry x="320.5" y="310" width="212" height="20" as="geometry" />
        </mxCell>
        <mxCell id="I5uIQci_89wwXOW9FdJi-3" value="PRODUCT" style="rounded=0;whiteSpace=wrap;html=1;fillColor=#FF9999;" vertex="1" parent="1">
          <mxGeometry x="631.5" y="310" width="212" height="20" as="geometry" />
        </mxCell>
        <mxCell id="I5uIQci_89wwXOW9FdJi-4" value="CUSTOMER" style="rounded=0;whiteSpace=wrap;html=1;fillColor=#66FF66;" vertex="1" parent="1">
          <mxGeometry x="322" y="495" width="212" height="20" as="geometry" />
        </mxCell>
        <mxCell id="I5uIQci_89wwXOW9FdJi-5" value="CUSTOMER" style="rounded=0;whiteSpace=wrap;html=1;fillColor=#66FF66;" vertex="1" parent="1">
          <mxGeometry x="621.5" y="430" width="212" height="20" as="geometry" />
        </mxCell>
        <mxCell id="I5uIQci_89wwXOW9FdJi-6" value="CUSTOMER" style="rounded=0;whiteSpace=wrap;html=1;fillColor=#66FF66;" vertex="1" parent="1">
          <mxGeometry x="634" y="550" width="212" height="20" as="geometry" />
        </mxCell>
        <mxCell id="I5uIQci_89wwXOW9FdJi-7" value="SALES" style="rounded=0;whiteSpace=wrap;html=1;fillColor=#9999FF;" vertex="1" parent="1">
          <mxGeometry x="23" y="404" width="212" height="20" as="geometry" />
        </mxCell>
      </root>
    </mxGraphModel>
  </diagram>
</mxfile>
